<?xml version="1.0" encoding="UTF-8" standalone="no"?>
<svg
   xmlns:dc="http://purl.org/dc/elements/1.1/"
   xmlns:cc="http://creativecommons.org/ns#"
   xmlns:rdf="http://www.w3.org/1999/02/22-rdf-syntax-ns#"
   xmlns:svg="http://www.w3.org/2000/svg"
   xmlns="http://www.w3.org/2000/svg"
   xmlns:sodipodi="http://sodipodi.sourceforge.net/DTD/sodipodi-0.dtd"
   xmlns:inkscape="http://www.inkscape.org/namespaces/inkscape"
   width="128"
   height="128"
   viewBox="0 0 33.866666 33.866666"
   version="1.1"
   id="svg8"
   inkscape:version="1.0.2 (e86c870879, 2021-01-15)"
   sodipodi:docname="TOPOR I MECH SHIPAGEME v2.svgz">
  <defs
     id="defs2" />
  <sodipodi:namedview
     id="base"
     pagecolor="#ffffff"
     bordercolor="#666666"
     borderopacity="1.0"
     inkscape:pageopacity="0.0"
     inkscape:pageshadow="2"
     inkscape:zoom="4"
     inkscape:cx="58.439254"
     inkscape:cy="81.307897"
     inkscape:document-units="mm"
     inkscape:current-layer="layer1"
     inkscape:document-rotation="0"
     showgrid="false"
     inkscape:snap-global="false"
     inkscape:window-width="1920"
     inkscape:window-height="1006"
     inkscape:window-x="0"
     inkscape:window-y="0"
     inkscape:window-maximized="1"
     units="px" />
  <metadata
     id="metadata5">
    <rdf:RDF>
      <cc:Work
         rdf:about="">
        <dc:format>image/svg+xml</dc:format>
        <dc:type
           rdf:resource="http://purl.org/dc/dcmitype/StillImage" />
        <dc:title></dc:title>
      </cc:Work>
    </rdf:RDF>
  </metadata>
  <g
     inkscape:label="Слой 1"
     inkscape:groupmode="layer"
     id="layer1">
    <path
       id="path916"
       style="fill:#808080;stroke:#000000;stroke-width:0.0316884px;stroke-linecap:butt;stroke-linejoin:miter;stroke-opacity:1"
       d="m 16.026164,7.0062779 -1.145939,3.1088331 h 0.93366 v 0.672054 l -1.68433,0.02402 0.802161,0.410555 -0.687529,0.05866 -0.171882,1.17317 h -0.480651 l -0.114659,-0.645262 -2.635639,0.873132 2.635639,0.769329 0.09276,-0.514399 0.502508,-0.01353 0.131645,1.17317 h 0.727739 l -0.51566,0.527974 1.375083,-0.05866 v 0.852483 h -0.802107 l 1.489701,4.164703 1.432386,-4.340672 -1.088622,0.175969 v -0.793813 l 1.432399,-0.05866 -0.744857,-0.351938 0.859477,-0.05866 0.106033,-1.285705 0.343764,-0.0013 0.008,0.524751 2.655864,-0.779362 -2.631658,-0.727473 0.03291,0.539599 -0.440255,-0.02999 -0.07524,-1.231786 h -0.91674 l 0.802108,-0.410622 -1.825836,0.02601 -0.0422,-0.60468 0.964727,-0.08786 z"
       sodipodi:nodetypes="ccccccccccccccccccccccccccccccccccccccccc" />
    <path
       style="fill:none;stroke:#000000;stroke-width:0.0625463px;stroke-linecap:butt;stroke-linejoin:miter;stroke-opacity:1"
       d="m 18.101833,31.613172 0.652878,-0.409573 c 0,0 5.638426,-9.511665 5.741089,-10.43565 l 0.348714,-6.413342 -1.373132,-1.716419 1.830838,-1.601971 0.174509,-6.7089471 -4.736961,-3.74650313 -4.139462,-0.045253 -3.917296,0.039812 -4.7369615,3.74650313 0.1745098,6.7089471 1.8308386,1.601972 -1.3731327,1.716418 0.3487145,6.413342 c 0.1027151,0.923985 6.7203863,10.640431 6.7203863,10.640431 z"
       id="path904-3"
       sodipodi:nodetypes="ccccccccccccccccc" />
    <path
       style="fill:none;stroke:#000000;stroke-width:0.0571086px;stroke-linecap:butt;stroke-linejoin:miter;stroke-opacity:1"
       d="m 17.764147,30.038419 h 1.3e-5 c 0.928192,-1.491029 5.734386,-9.074382 5.827971,-9.9195 l 0.317834,-5.865913 -1.251573,-1.569897 1.668764,-1.465243 0.159062,-6.1362766 -4.317647,-3.4267059 -3.773031,-0.041404 -3.570534,0.036362 -4.3176469,3.4267059 0.1590627,6.136277 1.6687632,1.465244 -1.2515729,1.569897 0.3178463,5.865926 c 0.093559,0.845104 4.8997666,8.428457 5.8279586,9.919485 v 0 c 0.231122,0.16485 2.417085,0.14221 2.53473,0.0053 z"
       id="path952"
       sodipodi:nodetypes="cscccccccccccccscc" />
  </g>
</svg>
