<?xml version="1.0" encoding="UTF-8" standalone="no"?>
<svg
   xmlns:dc="http://purl.org/dc/elements/1.1/"
   xmlns:cc="http://creativecommons.org/ns#"
   xmlns:rdf="http://www.w3.org/1999/02/22-rdf-syntax-ns#"
   xmlns:svg="http://www.w3.org/2000/svg"
   xmlns="http://www.w3.org/2000/svg"
   xmlns:sodipodi="http://sodipodi.sourceforge.net/DTD/sodipodi-0.dtd"
   xmlns:inkscape="http://www.inkscape.org/namespaces/inkscape"
   width="128mm"
   height="128mm"
   viewBox="0 0 128 128"
   version="1.1"
   id="svg8"
   inkscape:version="1.0.2 (e86c870879, 2021-01-15)"
   sodipodi:docname="topor.svg">
  <defs
     id="defs2" />
  <sodipodi:namedview
     id="base"
     pagecolor="#ffffff"
     bordercolor="#666666"
     borderopacity="1.0"
     inkscape:pageopacity="0.0"
     inkscape:pageshadow="2"
     inkscape:zoom="4.9085694"
     inkscape:cx="207.97107"
     inkscape:cy="44.786792"
     inkscape:document-units="mm"
     inkscape:current-layer="layer1"
     inkscape:document-rotation="0"
     showgrid="false"
     inkscape:snap-global="true"
     inkscape:window-width="1920"
     inkscape:window-height="1006"
     inkscape:window-x="0"
     inkscape:window-y="0"
     inkscape:window-maximized="1" />
  <metadata
     id="metadata5">
    <rdf:RDF>
      <cc:Work
         rdf:about="">
        <dc:format>image/svg+xml</dc:format>
        <dc:type
           rdf:resource="http://purl.org/dc/dcmitype/StillImage" />
        <dc:title />
      </cc:Work>
    </rdf:RDF>
  </metadata>
  <g
     inkscape:label="Слой 1"
     inkscape:groupmode="layer"
     id="layer1">
    <path
       style="fill:none;stroke:#000000;stroke-width:0.263824px;stroke-linecap:butt;stroke-linejoin:miter;stroke-opacity:1"
       d="M 79.376986,88.094518 Z"
       id="path32" />
    <g
       id="g937"
       transform="matrix(0.99974597,0,0,1.057023,2.6342462,-6.0653856)">
      <path
         style="fill:#ebb93a;fill-opacity:1;stroke:#000000;stroke-width:0.235236px;stroke-linecap:butt;stroke-linejoin:miter;stroke-opacity:1"
         d="m 55.868154,56.645194 h 5.397277 l 2.047355,0.853496 -2.047355,0.853493 h -5.059946 l -2.453404,-0.612238 z"
         id="path22"
         sodipodi:nodetypes="ccccccc" />
      <path
         style="fill:#eabe45;fill-opacity:1;stroke:#000000;stroke-width:0.262624px;stroke-linecap:butt;stroke-linejoin:miter;stroke-opacity:1"
         d="m 60.882027,24.052828 -0.08207,-3.454872 2.32245,-0.262019 0.258057,-3.144153 2.32245,-1.834096 v 0 H 63.63851 l 0.258047,-3.144153 H 61.832154 V 9.3313919 h -7.741505 l 0.25805,14.6727261 z"
         id="path26"
         sodipodi:nodetypes="ccccccccccccc" />
      <path
         style="fill:#cccccc;stroke:#000000;stroke-width:0.304336px;stroke-linecap:butt;stroke-linejoin:miter;stroke-opacity:1"
         d="M 63.636923,8.730853 74.097073,8.383648 V 6.300417 l 9.15262,-0.347206 3.39954,7.291314 0.26151,14.941 -22.198892,10.0764 5.192308,-11.352543 4.792094,-3.122988 0.2615,-5.208079 -3.13804,-0.347206 -2.438564,4.166466 h -6.233646 z"
         id="path36"
         sodipodi:nodetypes="cccccccccccccc" />
      <path
         style="fill:#e6b941;fill-opacity:1;stroke:#000000;stroke-width:0.208974px;stroke-linecap:butt;stroke-linejoin:miter;stroke-opacity:1"
         d="m 55.868154,56.645194 1.286316,-3.900452 h -1.791426 v -7.003458 h 6.008241 l 0.164965,7.003458 h -1.764167 l 1.493348,3.900452 z"
         id="path40"
         sodipodi:nodetypes="ccccccccc" />
      <path
         style="fill:#eabe45;fill-opacity:1;stroke:#000000;stroke-width:0.217224px;stroke-linecap:butt;stroke-linejoin:miter;stroke-opacity:1"
         d="m 55.363044,45.741284 1.537744,-2.390688 -0.249857,-4.043707 h -1.63899 l -0.663242,-15.302771 6.533328,0.04871 -1.028477,19.312156 1.517735,2.3763 z"
         id="path44"
         sodipodi:nodetypes="ccccccccc" />
      <path
         style="fill:#cccccc;stroke:#000000;stroke-width:0.37222px;stroke-linecap:butt;stroke-linejoin:miter;stroke-opacity:1"
         d="m 54.111628,10.051087 -20.552551,6.291481 20.788819,6.086419 -8.121095,-6.086419 z"
         id="path50"
         sodipodi:nodetypes="ccccc" />
      <g
         id="g916"
         style="fill:#676767;fill-opacity:1">
        <path
           style="fill:#676767;fill-opacity:1;stroke:#000000;stroke-width:0.168102px;stroke-linecap:butt;stroke-linejoin:miter;stroke-opacity:1"
           d="M 57.047858,126.6009 56.66563,58.352183 h 3.682741 l 0.420733,68.359947 z"
           id="path18" />
        <path
           style="fill:#676767;fill-opacity:1;stroke:#000000;stroke-width:0.264583px;stroke-linecap:butt;stroke-linejoin:miter;stroke-opacity:1"
           d="m 56.486951,60.63169 h 4.177631 L 60.316446,66.55 56.470729,66.377218 Z"
           id="path879"
           sodipodi:nodetypes="ccccc" />
        <path
           style="fill:#676767;fill-opacity:1;stroke:#000000;stroke-width:0.264583px;stroke-linecap:butt;stroke-linejoin:miter;stroke-opacity:1"
           d="m 56.486951,68.638817 h 4.177631 l -0.348136,5.91831 -3.845717,-0.172782 z"
           id="path881"
           sodipodi:nodetypes="ccccc"
           inkscape:transform-center-x="0.0038264725"
           inkscape:transform-center-y="1.0415466" />
        <path
           style="fill:#676767;fill-opacity:1;stroke:#000000;stroke-width:0.264583px;stroke-linecap:butt;stroke-linejoin:miter;stroke-opacity:1"
           d="m 56.486951,76.99408 h 4.177631 l -0.348136,5.91831 -3.845717,-0.172782 z"
           id="path883"
           sodipodi:nodetypes="ccccc"
           inkscape:transform-center-x="0.0038264725"
           inkscape:transform-center-y="1.0415466" />
        <path
           style="fill:#676767;fill-opacity:1;stroke:#000000;stroke-width:0.264583px;stroke-linecap:butt;stroke-linejoin:miter;stroke-opacity:1"
           d="m 56.886288,117.8373 h 4.177631 l -0.348136,5.91831 c -1.281906,-0.0576 -2.563811,-0.11519 -3.845717,-0.17278 z"
           id="path897"
           sodipodi:nodetypes="ccccc" />
        <path
           style="fill:#676767;fill-opacity:1;stroke:#000000;stroke-width:0.264583px;stroke-linecap:butt;stroke-linejoin:miter;stroke-opacity:1"
           d="m 56.764018,93.714104 h 4.177631 l -0.348136,5.91831 -3.845717,-0.172782 z"
           id="path899"
           sodipodi:nodetypes="ccccc"
           inkscape:transform-center-x="0.0038264725"
           inkscape:transform-center-y="1.0415466" />
        <path
           style="fill:#676767;fill-opacity:1;stroke:#000000;stroke-width:0.264583px;stroke-linecap:butt;stroke-linejoin:miter;stroke-opacity:1"
           d="m 56.71215,85.769393 h 4.177631 l -0.348136,5.91831 -3.845717,-0.172782 z"
           id="path901"
           sodipodi:nodetypes="ccccc"
           inkscape:transform-center-x="0.0038264725"
           inkscape:transform-center-y="1.0415466" />
        <path
           style="fill:#676767;fill-opacity:1;stroke:#000000;stroke-width:0.264583px;stroke-linecap:butt;stroke-linejoin:miter;stroke-opacity:1"
           d="m 56.680662,101.97446 h 4.177631 l -0.348136,5.91831 -3.845717,-0.17278 z"
           id="path903"
           sodipodi:nodetypes="ccccc" />
        <path
           style="fill:#676767;fill-opacity:1;stroke:#000000;stroke-width:0.264583px;stroke-linecap:butt;stroke-linejoin:miter;stroke-opacity:1"
           d="m 56.886287,110.20397 h 4.177631 l -0.348136,5.91831 -3.845717,-0.17278 z"
           id="path905"
           sodipodi:nodetypes="ccccc" />
      </g>
      <path
         style="fill:#666666;stroke:#000000;stroke-width:0.264583px;stroke-linecap:butt;stroke-linejoin:miter;stroke-opacity:1"
         d="m 55.011941,39.306889 -7.22817,-5.956384 -1.303787,-4.563251 2.607571,-4.563249 5.220465,-0.918832 0.09945,2.304863 -4.287652,1.377077 -0.971164,1.787831 0.539939,2.84503 4.710285,4.79763 0.546178,0.517445 z"
         id="path918"
         sodipodi:nodetypes="cccccccccccc" />
    </g>
    <path
       style="fill:#ededed;fill-opacity:1;stroke:#000000;stroke-width:0.263824px;stroke-linecap:butt;stroke-linejoin:miter;stroke-opacity:1"
       d="m 67.329658,34.378347 c 0,0 1.581224,-4.628973 2.11483,-4.932142 0.533604,-0.303172 16.779063,-8.186484 16.779063,-8.186484 L 86.122345,8.4568983 81.929728,0.34708575 85.862791,0.22729513 89.261467,7.9343813 89.52291,23.727362 67.329658,34.378347"
       id="path849" />
  </g>
</svg>
