<?xml version="1.0" encoding="UTF-8" standalone="no"?>
<!-- Created with Inkscape (http://www.inkscape.org/) -->

<svg
   width="128"
   height="128"
   viewBox="0 0 128 128"
   version="1.1"
   id="svg1"
   xml:space="preserve"
   inkscape:version="1.4.2 (f4327f4, 2025-05-13)"
   sodipodi:docname="slitok.svg"
   xmlns:inkscape="http://www.inkscape.org/namespaces/inkscape"
   xmlns:sodipodi="http://sodipodi.sourceforge.net/DTD/sodipodi-0.dtd"
   xmlns:xlink="http://www.w3.org/1999/xlink"
   xmlns="http://www.w3.org/2000/svg"
   xmlns:svg="http://www.w3.org/2000/svg"><sodipodi:namedview
     id="namedview1"
     pagecolor="#ffffff"
     bordercolor="#000000"
     borderopacity="0.25"
     inkscape:showpageshadow="2"
     inkscape:pageopacity="0.0"
     inkscape:pagecheckerboard="0"
     inkscape:deskcolor="#d1d1d1"
     inkscape:document-units="mm"
     inkscape:zoom="4"
     inkscape:cx="13"
     inkscape:cy="79.875"
     inkscape:window-width="1920"
     inkscape:window-height="1017"
     inkscape:window-x="-8"
     inkscape:window-y="-8"
     inkscape:window-maximized="1"
     inkscape:current-layer="layer1" /><defs
     id="defs1"><linearGradient
       id="linearGradient329"
       inkscape:collect="always"><stop
         style="stop-color:#fe970c;stop-opacity:1;"
         offset="0"
         id="stop329" /><stop
         style="stop-color:#ffffff;stop-opacity:1;"
         offset="1"
         id="stop330" /></linearGradient><linearGradient
       id="linearGradient327"
       inkscape:collect="always"><stop
         style="stop-color:#fe970c;stop-opacity:1;"
         offset="0"
         id="stop327" /><stop
         style="stop-color:#ffffff;stop-opacity:1;"
         offset="1"
         id="stop328" /></linearGradient><linearGradient
       id="linearGradient325"
       inkscape:collect="always"><stop
         style="stop-color:#fe970c;stop-opacity:1;"
         offset="0"
         id="stop325" /><stop
         style="stop-color:#ffffff;stop-opacity:1;"
         offset="1"
         id="stop326" /></linearGradient><rect
       x="3.3587572"
       y="43.133514"
       width="48.790368"
       height="16.263456"
       id="rect322" /><linearGradient
       id="swatch297"
       inkscape:swatch="solid"><stop
         style="stop-color:#000000;stop-opacity:1;"
         offset="0"
         id="stop297" /></linearGradient><linearGradient
       id="swatch296"
       inkscape:swatch="solid"><stop
         style="stop-color:#000000;stop-opacity:1;"
         offset="0"
         id="stop296" /></linearGradient><filter
       inkscape:collect="always"
       style="color-interpolation-filters:sRGB"
       id="filter322"
       x="-0.039894785"
       y="-0.18568725"
       width="1.0797896"
       height="1.3713745"><feGaussianBlur
         inkscape:collect="always"
         stdDeviation="0.26350271"
         id="feGaussianBlur322" /></filter><filter
       inkscape:collect="always"
       style="color-interpolation-filters:sRGB"
       id="filter323"
       x="-0.050722764"
       y="-0.049378787"
       width="1.1014457"
       height="1.0987564"><feGaussianBlur
         inkscape:collect="always"
         stdDeviation="0.39743522"
         id="feGaussianBlur323" /></filter><filter
       inkscape:collect="always"
       style="color-interpolation-filters:sRGB"
       id="filter324"
       x="-0.021799079"
       y="-0.027642401"
       width="1.043598"
       height="1.0552845"><feGaussianBlur
         inkscape:collect="always"
         stdDeviation="0.39743522"
         id="feGaussianBlur324" /></filter><filter
       inkscape:collect="always"
       style="color-interpolation-filters:sRGB"
       id="filter325"
       x="-0.017984962"
       y="-0.030909458"
       width="1.0359699"
       height="1.0618189"><feGaussianBlur
         inkscape:collect="always"
         stdDeviation="0.39743522"
         id="feGaussianBlur325" /></filter><linearGradient
       inkscape:collect="always"
       xlink:href="#linearGradient325"
       id="linearGradient326"
       x1="85.559921"
       y1="87.858017"
       x2="61.871841"
       y2="38.537319"
       gradientUnits="userSpaceOnUse" /><linearGradient
       inkscape:collect="always"
       xlink:href="#linearGradient327"
       id="linearGradient328"
       x1="13.788582"
       y1="104.12148"
       x2="32.70369"
       y2="57.27565"
       gradientUnits="userSpaceOnUse" /><linearGradient
       inkscape:collect="always"
       xlink:href="#linearGradient329"
       id="linearGradient330"
       x1="39.951534"
       y1="52.325901"
       x2="65.937706"
       y2="112.07642"
       gradientUnits="userSpaceOnUse" /></defs><g
     inkscape:label="Слой 1"
     inkscape:groupmode="layer"
     id="layer1"><path
       style="opacity:1;fill:url(#linearGradient330);fill-opacity:1;fill-rule:evenodd;stroke:#dedddc;stroke-width:2.01071;stroke-linecap:round;stroke-linejoin:round;stroke-dasharray:none;stroke-opacity:1;filter:url(#filter325)"
       d="M 37.25,85.5 119.85937,37.805458 92.683378,22.115393 10.929354,69.788031 Z"
       id="path320"
       sodipodi:nodetypes="ccccc" /><path
       style="opacity:1;fill:url(#linearGradient326);fill-opacity:1;fill-rule:evenodd;stroke:#dedede;stroke-width:2.01071;stroke-linecap:round;stroke-linejoin:round;stroke-dasharray:none;stroke-opacity:1;filter:url(#filter324)"
       d="m 37.25,85.25 2.875,23.75 87,-52.375 -7.25,-18.5 z"
       id="path321"
       sodipodi:nodetypes="ccccc" /><path
       style="opacity:1;fill:url(#linearGradient328);fill-opacity:1;fill-rule:evenodd;stroke:#dededd;stroke-width:2.01071;stroke-linecap:round;stroke-linejoin:round;stroke-dasharray:none;stroke-opacity:1;filter:url(#filter323)"
       d="M 37.125,85.375 10.927427,69.823874 1.875,87.5 40.5,109.5 Z"
       id="path322"
       sodipodi:nodetypes="ccccc" /><path
       d="m 8.243375,49.527315 h 2.964 v 4.2 q -0.696,0.228 -1.404,0.336 -0.708,0.108 -1.608,0.108 -1.332,0 -2.244,-0.528 -0.912,-0.54 -1.392,-1.524 -0.468,-0.996 -0.468,-2.352 0,-1.344 0.528,-2.328 0.528,-0.984 1.512,-1.524 0.996,-0.552 2.4,-0.552 0.72,0 1.356,0.132 0.648,0.132 1.2,0.372 l -0.408,0.936 q -0.456,-0.204 -1.032,-0.348 -0.564,-0.144 -1.176,-0.144 -1.536,0 -2.4,0.924 -0.852,0.924 -0.852,2.532 0,1.02 0.324,1.812 0.336,0.78 1.044,1.224 0.708,0.432 1.86,0.432 0.564,0 0.96,-0.06 0.396,-0.06 0.72,-0.144 v -2.544 h -1.884 z m 15.61201,0.228 q 0,1.332 -0.456,2.328 -0.444,0.984 -1.32,1.536 -0.876,0.552 -2.172,0.552 -1.332,0 -2.22,-0.552 -0.876,-0.552 -1.308,-1.548 -0.432,-0.996 -0.432,-2.328 0,-1.32 0.432,-2.304 0.432,-0.984 1.308,-1.536 0.888,-0.552 2.232,-0.552 1.284,0 2.16,0.552 0.876,0.54 1.32,1.536 0.456,0.984 0.456,2.316 z m -6.768,0 q 0,1.62 0.684,2.556 0.684,0.924 2.136,0.924 1.464,0 2.136,-0.924 0.672,-0.936 0.672,-2.556 0,-1.62 -0.672,-2.532 -0.672,-0.924 -2.124,-0.924 -1.452,0 -2.148,0.924 -0.684,0.912 -0.684,2.532 z m 11.784005,4.296 v -8.568 h 1.08 v 7.608 h 3.744 v 0.96 z m 16.272005,-4.368 q 0,2.172 -1.188,3.276 -1.176,1.092 -3.288,1.092 h -2.388 v -8.568 h 2.64 q 1.296,0 2.244,0.48 0.948,0.48 1.464,1.416 0.516,0.924 0.516,2.304 z m -1.14,0.036 q 0,-1.716 -0.852,-2.508 -0.84,-0.804 -2.388,-0.804 h -1.404 v 6.72 h 1.164 q 3.48,0 3.48,-3.408 z"
       id="text322"
       style="white-space:pre;opacity:0.672932;fill:#e58401;fill-rule:evenodd;stroke:#b46b08;stroke-width:2.01071;stroke-linecap:round;stroke-linejoin:round;filter:url(#filter322);stroke-opacity:1"
       transform="matrix(1.2945294,-0.77401215,0.77401215,1.2945294,-5.1585561,7.893637)"
       aria-label="G O L D" /></g></svg>
