<?xml version="1.0" encoding="UTF-8" standalone="no"?>
<svg
   xmlns:dc="http://purl.org/dc/elements/1.1/"
   xmlns:cc="http://creativecommons.org/ns#"
   xmlns:rdf="http://www.w3.org/1999/02/22-rdf-syntax-ns#"
   xmlns:svg="http://www.w3.org/2000/svg"
   xmlns="http://www.w3.org/2000/svg"
   xmlns:sodipodi="http://sodipodi.sourceforge.net/DTD/sodipodi-0.dtd"
   xmlns:inkscape="http://www.inkscape.org/namespaces/inkscape"
   width="128"
   height="128"
   viewBox="0 0 33.866666 33.866668"
   version="1.1"
   id="svg8"
   inkscape:version="1.0.2 (e86c870879, 2021-01-15)"
   sodipodi:docname="goblintorgovec.svg">
  <defs
     id="defs2" />
  <sodipodi:namedview
     id="base"
     pagecolor="#ffffff"
     bordercolor="#666666"
     borderopacity="1.0"
     inkscape:pageopacity="0.0"
     inkscape:pageshadow="2"
     inkscape:zoom="3.959798"
     inkscape:cx="34.600704"
     inkscape:cy="64.417783"
     inkscape:document-units="mm"
     inkscape:current-layer="layer1"
     inkscape:document-rotation="0"
     showgrid="false"
     units="px"
     inkscape:window-width="1708"
     inkscape:window-height="910"
     inkscape:window-x="31"
     inkscape:window-y="31"
     inkscape:window-maximized="0"
     inkscape:snap-global="false" />
  <metadata
     id="metadata5">
    <rdf:RDF>
      <cc:Work
         rdf:about="">
        <dc:format>image/svg+xml</dc:format>
        <dc:type
           rdf:resource="http://purl.org/dc/dcmitype/StillImage" />
        <dc:title></dc:title>
      </cc:Work>
    </rdf:RDF>
  </metadata>
  <g
     inkscape:label="Слой 1"
     inkscape:groupmode="layer"
     id="layer1">
    <path
       style="display:inline;fill:#6cc191;fill-opacity:1;stroke:#000000;stroke-width:0.165;stroke-linecap:butt;stroke-linejoin:miter;stroke-miterlimit:4;stroke-dasharray:none;stroke-opacity:1"
       d="m 6.9558399,21.771671 0.4065257,3.947356 -0.883286,-0.525494 0.096982,-1.865818 -0.5158725,2.127553 -1.033563,-0.544526 0.976268,-1.747488 -0.2657932,-0.140885 -1.2956278,2.09163 -0.726599,-0.510596 1.2878439,-1.992184 -0.2711192,-0.154067 -1.3763417,1.825695 -0.54754,-0.594784 c 0,0 2.112696,-2.665105 2.305619,-2.572947 0.192924,0.09216 1.8425033,0.656553 1.8425033,0.656553 z"
       id="path931"
       sodipodi:nodetypes="ccccccccccccccscc" />
    <path
       style="fill:#6cc191;fill-opacity:1;stroke:#000000;stroke-width:0.165;stroke-linecap:butt;stroke-linejoin:miter;stroke-miterlimit:4;stroke-dasharray:none;stroke-opacity:1"
       d="m 24.811865,21.654689 0.423242,3.359666 0.883286,-0.525494 -0.381509,-1.94934 0.800399,2.211075 1.033563,-0.544526 -0.976268,-1.747488 0.157215,-0.08242 1.404206,2.033165 0.726599,-0.510596 -1.32714,-1.866013 0.141997,-0.08341 1.54476,1.628867 0.54754,-0.594784 c 0,0 -2.112696,-2.665105 -2.305619,-2.572947 -0.192924,0.09216 -2.672271,1.244243 -2.672271,1.244243 z"
       id="path929"
       sodipodi:nodetypes="ccccccccccccccscc" />
    <path
       style="fill:#5f2020;fill-opacity:1;stroke:#000000;stroke-width:0.264583px;stroke-linecap:butt;stroke-linejoin:miter;stroke-opacity:1"
       d="m 21.081941,25.452059 0.625306,5.332515 2.121209,-0.09118 1.039655,0.38177 0.957459,0.627142 0.07711,1.974085 -7.588009,0.071 -1.278222,-7.926979 z"
       id="path925"
       sodipodi:nodetypes="ccccccccc" />
    <path
       style="fill:#948080;fill-opacity:1;stroke:#000000;stroke-width:0.191802px;stroke-linecap:butt;stroke-linejoin:miter;stroke-opacity:1"
       d="m 11.761798,13.920302 -4.7489652,1.167392 -2.3168517,6.41908 2.3725152,0.674833 2.5341364,-4.616949 2.7870743,-1.274583 z"
       id="path843-3-6" />
    <path
       style="fill:#948080;fill-opacity:1;stroke:#000000;stroke-width:0.188812px;stroke-linecap:butt;stroke-linejoin:miter;stroke-opacity:1"
       d="m 20.175985,13.773265 4.739402,0.760668 2.951855,6.153819 -2.230165,0.863653 -2.965792,-4.35428 -2.845921,-1.029149 z"
       id="path843-3" />
    <path
       style="fill:#5f2020;fill-opacity:1;stroke:#000000;stroke-width:0.264583px;stroke-linecap:butt;stroke-linejoin:miter;stroke-opacity:1"
       d="m 12.14471,25.523559 -0.625306,5.332515 -2.1212086,-0.09118 -1.0396553,0.38177 -0.9574594,0.627142 -0.077106,1.974085 7.5880093,0.071 1.278222,-7.926979 z"
       id="path903"
       sodipodi:nodetypes="ccccccccc" />
    <path
       style="fill:#cd6232;fill-opacity:1;stroke:#000000;stroke-width:0.264583px;stroke-linecap:butt;stroke-linejoin:miter;stroke-opacity:1"
       d="M 12.665697,13.272027 7.9965269,17.794462 6.7594646,27.267688 26.921269,27.031944 24.111018,16.645394 18.43266,12.817952 Z"
       id="path841" />
    <path
       style="fill:#6cc191;fill-opacity:1;stroke:#000000;stroke-width:0.158877px;stroke-linecap:butt;stroke-linejoin:miter;stroke-opacity:1"
       d="M 8.7091737,0.63709305 12.243414,3.9745126 19.003562,3.7588398 22.50775,0.38814852 21.587936,4.417501 l 2.586356,1.2287951 0.431772,6.2516469 -4.53429,2.154863 -9.23075,0.28691 L 6.9381891,11.363835 7.2518774,6.4179495 9.159613,4.5735785 Z"
       id="path833"
       sodipodi:nodetypes="ccccccccccccc" />
    <path
       style="fill:#c1a56c;fill-opacity:1;stroke:#000000;stroke-width:0.158877px;stroke-linecap:butt;stroke-linejoin:miter;stroke-opacity:1"
       d="m 18.289674,5.6649175 3.083279,0.6049867 -2.134177,1.403747 z"
       id="path837" />
    <path
       style="fill:#c1a56c;fill-opacity:1;stroke:#000000;stroke-width:0.158877px;stroke-linecap:butt;stroke-linejoin:miter;stroke-opacity:1"
       d="M 10.815248,6.1573294 14.166916,5.7387858 12.927522,7.661172 Z"
       id="path835" />
    <path
       style="fill:#e0ffed;fill-opacity:1;stroke:#000000;stroke-width:0.158877px;stroke-linecap:butt;stroke-linejoin:miter;stroke-opacity:1"
       d="M 20.55004,9.093529 15.696969,11.909736 11.578184,9.3387257 Z"
       id="path839"
       sodipodi:nodetypes="cccc" />
    <path
       style="fill:#80391b;fill-opacity:1;stroke:#000000;stroke-width:0.264583px;stroke-linecap:butt;stroke-linejoin:miter;stroke-opacity:1"
       d="m 6.7736584,10.772278 c 0,0 -0.1531562,1.398124 0.2180417,1.927599 0.6176279,0.88098 2.8914409,1.434533 2.8914409,1.434533 l -0.257679,2.660632 2.992873,-2.259598 -0.306772,3.595192 2.248121,-3.479148 1.926344,3.755562 0.723654,-3.26292 2.112958,2.223298 0.117517,-3.059951 2.081378,2.394031 0.238812,-2.726336 c 1.142218,-0.605119 2.072037,-0.952094 2.526155,-1.695216 0.401959,-0.657769 0.4133,-1.694623 0.131721,-2.4894812 0,0 -1.336953,1.6709222 -3.098027,2.4888012 -1.544125,0.717123 -3.522508,0.589254 -3.753007,0.654556 -0.493383,0.13978 -4.084474,0.27522 -4.084474,0.27522 L 9.6258231,12.427306 Z"
       id="path927"
       sodipodi:nodetypes="cacccccccccccscssccc" />
  </g>
</svg>
