<?xml version="1.0" encoding="UTF-8" standalone="no"?>
<svg
   xmlns:dc="http://purl.org/dc/elements/1.1/"
   xmlns:cc="http://creativecommons.org/ns#"
   xmlns:rdf="http://www.w3.org/1999/02/22-rdf-syntax-ns#"
   xmlns:svg="http://www.w3.org/2000/svg"
   xmlns="http://www.w3.org/2000/svg"
   xmlns:sodipodi="http://sodipodi.sourceforge.net/DTD/sodipodi-0.dtd"
   xmlns:inkscape="http://www.inkscape.org/namespaces/inkscape"
   width="128"
   height="128"
   viewBox="0 0 33.866666 33.866668"
   version="1.1"
   id="svg884"
   inkscape:version="1.0.2 (e86c870879, 2021-01-15)"
   sodipodi:docname="privedeniev2.svg">
  <defs
     id="defs878" />
  <sodipodi:namedview
     id="base"
     pagecolor="#ffffff"
     bordercolor="#666666"
     borderopacity="1.0"
     inkscape:pageopacity="0.0"
     inkscape:pageshadow="2"
     inkscape:zoom="3.959798"
     inkscape:cx="78.784531"
     inkscape:cy="64.726738"
     inkscape:document-units="mm"
     inkscape:current-layer="layer1"
     inkscape:document-rotation="0"
     showgrid="true"
     inkscape:snap-global="false"
     inkscape:window-width="1708"
     inkscape:window-height="910"
     inkscape:window-x="31"
     inkscape:window-y="31"
     inkscape:window-maximized="0"
     units="px"
     borderlayer="true">
    <inkscape:grid
       type="xygrid"
       id="grid12"
       empspacing="0"
       dotted="false"
       originx="0"
       originy="33.866668" />
  </sodipodi:namedview>
  <metadata
     id="metadata881">
    <rdf:RDF>
      <cc:Work
         rdf:about="">
        <dc:format>image/svg+xml</dc:format>
        <dc:type
           rdf:resource="http://purl.org/dc/dcmitype/StillImage" />
        <dc:title></dc:title>
      </cc:Work>
    </rdf:RDF>
  </metadata>
  <g
     inkscape:label="Слой 1"
     inkscape:groupmode="layer"
     id="layer1">
    <path
       style="fill:#e61e1e;fill-opacity:1;stroke:#000000;stroke-width:0.151527;stroke-linecap:butt;stroke-linejoin:miter;stroke-miterlimit:4;stroke-dasharray:none;stroke-opacity:1"
       d="M 12.346537,0.31276723 16.87433,0.49444379 17.367581,1.9620003 14.301324,1.922844 14.284953,2.364995 12.417068,2.3220021 Z"
       id="path902" />
    <path
       style="fill:#5d5d5d;fill-opacity:1;stroke:#000000;stroke-width:0.151527;stroke-linecap:butt;stroke-linejoin:miter;stroke-miterlimit:4;stroke-dasharray:none;stroke-opacity:1"
       d="M 14.4156,2.0063299 14.36119,3.435294 h 1.343361 v 1.2805311 h 1.813115 V 11.709024 H 15.786123 V 10.586582 H 14.551811 V 9.4380029 H 13.63721 V 8.0846917 H 10.641328 V 10.26589 H 9.3120358 v 2.120484 H 8.4226566 v 1.862372 H 6.7920598 v 1.605658 h 1.4555008 v 3.465776 h 2.6842954 v 2.361759 h 0.884556 v 1.901158 h -0.987316 v 1.272969 H 9.1869467 v 1.934799 H 8.1669469 v 1.57726 H 6.9675643 v 1.828416 h 4.6436717 v 1.849963 H 8.0966 v 1.587377 h 4.538019 v -1.013824 h 2.234341 v -1.353582 h 1.349994 v -1.487922 h 2.047432 v 1.552477 h -1.191943 v 1.651398 h 3.376474 v -1.431326 h 1.353766 c 0,0 -0.05732,-1.5779 0,-1.59326 0.05733,-0.01537 1.630163,0 1.630163,0 v -3.840149 h 1.364467 v -3.935205 h 1.279036 v -2.56597 c 0,0 1.906936,0.12842 1.906936,0 V 17.775794 8.0677224 h 1.028287 V 7.3802599 H 28.043847 V 5.6023632 H 27.142265 V 4.7038771 L 23.689899,4.4649872 V 3.0126021 h -4.390765 c 0,0 0.160491,-1.1527808 0,-1.1097773 -0.16049,0.043003 -4.883534,0.1035011 -4.883534,0.1035011 z"
       id="path1465"
       sodipodi:nodetypes="cccccccccccccccccccccccccccccccccccccccccccccccccccsccccccscccccccccccsc" />
    <path
       style="fill:#c2c2c2;fill-opacity:1;stroke:#000000;stroke-width:0.151527;stroke-linecap:butt;stroke-linejoin:miter;stroke-miterlimit:4;stroke-dasharray:none;stroke-opacity:1"
       d="m 28.896029,8.156058 h -5.836766 v 0.8787981 h -1.244856 v 1.4408029 h -1.028325 v 4.344956 h 1.134028 v 2.936992 h 1.086774 v -1.2172 h 1.205822 v 1.088544 h 1.438696 V 16.57745 h 1.075669 v 1.259227 H 27.95228 V 16.68984 h 1.488029 V 8.1584564 Z"
       id="path1467" />
    <rect
       style="fill:#b90101;fill-opacity:1;stroke:#000000;stroke-width:0.151527;stroke-miterlimit:4;stroke-dasharray:none"
       id="rect1469"
       width="1.8288146"
       height="2.0861468"
       x="26.591631"
       y="10.502949"
       ry="0" />
    <rect
       style="fill:#b90101;fill-opacity:1;stroke:#000000;stroke-width:0.151527;stroke-miterlimit:4;stroke-dasharray:none"
       id="rect1471"
       width="1.7026212"
       height="1.9081788"
       x="23.06394"
       y="10.727672" />
  </g>
</svg>
